# xmcd
#
# Track frame offsets: 
#        150
#        14075
#        27940
#        41182
#        56384
#        70474
#        83197
#        95650
#        109498
#        120992
#        135839
#        149402
#        163458
#        178066
#        191737
#        206211
#        221220
#        235561
#
# Disc length: 3295 seconds
#
# Revision: 1
# Processed by: cddbd v1.5.2PL0 Copyright (c) Steve Scherf et al.
# Submitted via: ExactAudioCopy v0.95b2
#
DISCID=160cdd12
DTITLE=Walter Davis - The Essential [CD1]
DYEAR=2001
DGENRE=Blues
TTITLE0=Mr. Davis' Blues
TTITLE1=Sloppy Drunk Again
TTITLE2=Biddle Street Blues
TTITLE3=That Stuff You Sell Ain't No Good
TTITLE4=M. and O. Blues
TTITLE5=Sweet Sixteen
TTITLE6=Come Back Baby
TTITLE7=Lonesome Hill Blues
TTITLE8=Good Gal
TTITLE9=Lay Around Your D. B. A.
TTITLE10=Dentist Blues
TTITLE11=Cotton Club Blues (with Booker T. Washington)
TTITLE12=Don't You Want To Go?
TTITLE13=Just Wondering
TTITLE14=I Hear My Baby Crying
TTITLE15=Railroad Man Blues
TTITLE16=Engineer's Blues
TTITLE17=Worried Man Blues
EXTD=
EXTT0=
EXTT1=
EXTT2=
EXTT3=
EXTT4=
EXTT5=
EXTT6=
EXTT7=
EXTT8=
EXTT9=
EXTT10=
EXTT11=
EXTT12=
EXTT13=
EXTT14=
EXTT15=
EXTT16=
EXTT17=
PLAYORDER=
